<svg xmlns="http://www.w3.org/2000/svg" width="20" height="20" fill="currentColor"><path fill-rule="evenodd" d="M13.728 3.641a1.875 1.875 0 0 0-2.655.002l-5.82 5.845-3.35 3.35a1.875 1.875 0 0 0 .006 2.657l1.838 1.824a.63.63 0 0 0 .44.181h10.188a.625.625 0 1 0 0-1.25h-3.512l.577-.574.002-.002 5.821-5.85a1.875 1.875 0 0 0-.003-2.648zM2.788 13.72l2.907-2.907 4.419 4.418-.84.836a.63.63 0 0 1-.44.182h-4.39L2.79 14.608a.625.625 0 0 1-.002-.886m13.59-4.779-5.38 5.406-4.42-4.42 5.38-5.403a.625.625 0 0 1 .886 0l3.532 3.535a.625.625 0 0 1 .001.882" clip-rule="evenodd"></path></svg>
