<svg width="26" height="26" viewBox="0 0 32 32" fill="none" xmlns="http://www.w3.org/2000/svg">
<rect width="32" height="32" rx="4" fill="#0BB5B5"/>
<path fill-rule="evenodd" clip-rule="evenodd" d="M10 10C9.44772 10 9 10.4477 9 11V21C9 21.5523 9.44772 22 10 22H22C22.5523 22 23 21.5523 23 21V11C23 10.4477 22.5523 10 22 10H10ZM12.5713 12.5757C13.2025 12.5757 13.7142 13.0874 13.7142 13.7185C13.7142 14.3497 13.2025 14.8614 12.5713 14.8614C11.9401 14.8614 11.4285 14.3497 11.4285 13.7185C11.4285 13.0874 11.9401 12.5757 12.5713 12.5757ZM18.2856 14.8639L21.7142 18.2856V20.5577H11.4698L18.2856 14.8639Z" fill="white"/>
</svg>
