<svg width="26" height="26" viewBox="0 0 32 32" fill="none" xmlns="http://www.w3.org/2000/svg">
<rect width="32" height="32" rx="4" fill="#CC3C29"/>
<path fill-rule="evenodd" clip-rule="evenodd" d="M17.0015 18.9251C18.761 20.169 20.5144 20.8859 22.115 21.1784L22.4816 21.2384C24.9229 21.5911 26.6385 20.3674 25.7724 18.3337C25.3582 17.3609 24.5473 16.9798 22.3694 16.7661C20.6916 16.6014 19.1377 16.6708 17.5499 16.9498L17.3281 16.9911L17.325 16.9921L17.2838 16.9544C16.8083 16.4992 16.2203 15.8572 15.5267 15.0327L15.5121 15.0146L15.5121 15.0132L15.5022 14.9985L15.6349 14.5218C15.6933 14.3032 15.7499 14.0849 15.806 13.8632L15.9746 13.184C15.992 13.1171 16.0652 12.8645 16.1012 12.7405C16.1117 12.7044 16.119 12.6791 16.1208 12.6726C16.3128 11.9925 16.3978 11.4572 16.3516 10.8606C16.2709 9.81778 15.9006 8.95828 15.2082 8.44701C14.5595 7.96806 13.8046 7.8413 12.9937 8.22757C10.8627 9.24258 11.1126 11.5678 13.2299 14.8345L13.4215 15.1252L13.4656 15.1851L13.6321 15.3914L13.4141 16.0869C13.1824 16.7942 12.9303 17.4836 12.6548 18.1527L12.5545 18.3834L12.5255 18.3957C11.6474 18.7357 10.9699 19.0638 10.1914 19.4955L9.89414 19.6624C9.82701 19.7005 9.76635 19.7345 9.6712 19.7873L9.56304 19.8472L9.53369 19.8635L9.53335 19.8637C9.45791 19.9057 9.45779 19.9058 9.37957 19.9499C9.36385 19.9588 9.32566 19.9811 9.28493 20.0048C9.23438 20.0343 9.17992 20.066 9.15962 20.0774C9.12047 20.0993 9.08631 20.1171 9.05304 20.1328C7.35665 20.9351 6.6751 22.3647 7.14501 23.7929C7.16318 23.8791 7.22349 24.0628 7.32348 24.2381C7.49979 24.5473 7.77271 24.7883 8.1434 24.9071C8.51882 25.0275 9.29117 25.0361 9.6832 24.902C9.69219 24.8989 9.72844 24.8873 9.77175 24.8735C9.82952 24.855 9.89986 24.8326 9.93485 24.8209C10.0838 24.7713 10.2158 24.721 10.3474 24.6608C10.6696 24.5135 10.9412 24.3277 11.1551 24.0718C11.9612 23.1073 12.679 21.9897 13.3187 20.7429L13.5881 20.2008L13.8029 19.741C13.8087 19.7354 13.8125 19.7298 13.8163 19.7243L13.8317 19.7184C13.9439 19.6789 14.0601 19.6387 14.1806 19.5977L14.5563 19.4719C15.3234 19.2187 16.0554 19.0074 16.7691 18.8398L16.86 18.8194L17.0015 18.9251ZM14.2118 9.81181C14.4511 9.98843 14.6266 10.3959 14.6727 10.9913C14.7001 11.346 14.643 11.7057 14.5009 12.2094L14.4962 12.2253L14.4962 12.2254L14.4962 12.2254C14.4732 12.3045 14.3719 12.6527 14.3451 12.7561L14.2846 13.002L14.2281 13.2295L14.2224 13.2385C13.0027 11.1902 12.9583 10.119 13.7163 9.75792C13.9221 9.65987 14.0308 9.67811 14.2118 9.81181ZM15.4001 17.4432L15.1634 17.1857L14.9146 16.9201L14.6539 17.6628L15.0289 17.5497L15.4001 17.4432ZM24.033 18.8055C24.1619 18.8661 24.1728 18.8784 24.2245 18.9998C24.4348 19.4937 24.0682 19.7552 22.7224 19.5607L19.3935 18.4203C20.3136 18.3477 21.2384 18.3565 22.2069 18.4515C22.594 18.5058 23.5012 18.6524 24.033 18.8055ZM9.8661 22.9812C9.83664 23.0164 9.76359 23.0664 9.65069 23.118C9.58087 23.15 9.50212 23.1799 9.40567 23.2121C9.38786 23.218 9.345 23.2317 9.2983 23.2467L9.29818 23.2467C9.2359 23.2666 9.16683 23.2887 9.14133 23.2975C9.11362 23.3069 8.89342 23.3072 8.75828 23.3013L8.74597 23.2601C8.56642 22.7144 8.78733 22.1896 9.59042 21.7565L9.8753 21.6136L9.97921 21.5576C10.018 21.5359 10.1021 21.4868 10.1573 21.4547L10.2079 21.4252L10.2974 21.3749L10.3503 21.3454L10.3786 21.3297C10.5418 21.2394 10.6272 21.1919 10.7243 21.1367C10.9548 21.0057 11.172 20.8856 11.3846 20.773L9.8661 22.9812Z" fill="white"/>
</svg>
