<svg width="26" height="26" viewBox="0 0 32 32" fill="none" xmlns="http://www.w3.org/2000/svg">
<rect width="32" height="32" rx="4" fill="#9E36B2"/>
<path fill-rule="evenodd" clip-rule="evenodd" d="M19.772 9.18C19.2045 9.3 15.2052 10.0214 14.3092 10.2314C13.2646 10.4721 13.2646 10.7429 13.2646 12.5764C13.2646 14.41 13.2945 18.3786 13.2945 18.8893C13.2945 19.7914 13.0854 20.2421 12.4888 20.2421C12.0109 20.2421 11.2948 20.2721 10.9364 20.2721C9.11599 20.2721 8.78746 24 11.3546 24C11.6532 24 12.8472 24 13.2646 23.88C13.6827 23.7593 14.4884 23.4286 14.4884 22.3764C14.4884 21.475 14.5183 15.9436 14.4884 14.9214C14.4586 13.9293 14.9066 13.8993 15.2941 13.8093C15.5629 13.7493 19.1747 12.9971 20.0998 12.7871C20.8465 12.6064 20.727 13.2979 20.727 13.4786V17.7471C20.727 18.5586 20.3985 18.6493 20.2193 18.6493C19.6824 18.6193 18.876 18.6193 18.4287 18.7393C16.1304 19.4007 16.9361 22.5271 18.6378 22.5271C19.6824 22.5271 20.2492 22.6171 20.8465 22.3771C21.5015 22.0914 21.9239 21.4409 21.9203 20.7236C21.9203 19.9414 21.9508 11.3143 21.9508 9.93071C21.9508 8.54857 20.3089 9.08929 19.772 9.17929V9.18Z" fill="white"/>
</svg>
