<svg xmlns="http://www.w3.org/2000/svg" width="20" height="20" fill="none"><path fill="url(#Read_fill_20_svg__a)" d="M2 7.554a1 1 0 0 1 .47-.848l6.47-4.044a2 2 0 0 1 2.12 0l6.47 4.044a1 1 0 0 1 .47.848V16a1 1 0 0 1-1 1H3a1 1 0 0 1-1-1z"></path><path fill="url(#Read_fill_20_svg__b)" fill-rule="evenodd" d="M9.31 3.138a1.3 1.3 0 0 1 1.38 0l6.97 4.368-.32.508-6.968-4.367a.7.7 0 0 0-.744 0L2.66 8.015l-.318-.509z" clip-rule="evenodd"></path><path fill="url(#Read_fill_20_svg__c)" fill-rule="evenodd" d="m17.923 9.324-6.744 5.845a1.8 1.8 0 0 1-2.358 0L2.077 9.324l.393-.454 6.744 5.845a1.2 1.2 0 0 0 1.572 0L17.53 8.87z" clip-rule="evenodd"></path><path fill="url(#Read_fill_20_svg__d)" fill-rule="evenodd" d="m17.923 8.53-6.744 5.845a1.8 1.8 0 0 1-2.358 0L2.077 8.53l.393-.453 6.744 5.845a1.2 1.2 0 0 0 1.572 0l6.744-5.845z" clip-rule="evenodd"></path><path fill="url(#Read_fill_20_svg__e)" fill-rule="evenodd" d="M3 16.999h14a1 1 0 0 0 1-1v-.4l-6.92-5.99c-.566-.494-1.594-.494-2.16 0L2 15.6v.4a1 1 0 0 0 1 1" clip-rule="evenodd"></path><path fill="url(#Read_fill_20_svg__f)" fill-rule="evenodd" d="m9.542 10.521-6.845 5.932L2.304 16l6.845-5.932a1.3 1.3 0 0 1 1.703 0L17.697 16l-.393.453-6.845-5.932a.7.7 0 0 0-.917 0" clip-rule="evenodd"></path><path fill="url(#Read_fill_20_svg__g)" fill-rule="evenodd" d="M10.819 10.04a1.25 1.25 0 0 0-1.638 0L2.664 15.69l-.328-.378 6.518-5.649a1.75 1.75 0 0 1 2.292 0l6.518 5.649-.328.378z" clip-rule="evenodd"></path><path fill="url(#Read_fill_20_svg__h)" fill-rule="evenodd" d="M10.742 3.171a1.4 1.4 0 0 0-1.484 0l-6.47 4.044a.4.4 0 0 0-.188.34V16c0 .22.18.4.4.4h14a.4.4 0 0 0 .4-.4V7.554a.4.4 0 0 0-.188-.339zM8.94 2.662a2 2 0 0 1 2.12 0l6.47 4.044a1 1 0 0 1 .47.848V16a1 1 0 0 1-1 1H3a1 1 0 0 1-1-1V7.554a1 1 0 0 1 .47-.848z" clip-rule="evenodd"></path><defs><linearGradient id="Read_fill_20_svg__a" x1="10" x2="10" y1="5" y2="17" gradientUnits="userSpaceOnUse"><stop offset="0.212" stop-color="#F6F6F6"></stop><stop offset="0.571" stop-color="#E7E7E7"></stop></linearGradient><linearGradient id="Read_fill_20_svg__b" x1="10" x2="10" y1="7.561" y2="3.061" gradientUnits="userSpaceOnUse"><stop stop-color="#F6F6F6"></stop><stop offset="0.397" stop-color="#FCFCFC"></stop><stop offset="0.88" stop-color="#fff"></stop></linearGradient><linearGradient id="Read_fill_20_svg__c" x1="10" x2="10" y1="14.793" y2="9.094" gradientUnits="userSpaceOnUse"><stop stop-color="#fff"></stop><stop offset="0.397" stop-color="#ECECEC"></stop><stop offset="0.88" stop-color="#F5F5F5"></stop></linearGradient><linearGradient id="Read_fill_20_svg__d" x1="10" x2="10" y1="14" y2="7" gradientUnits="userSpaceOnUse"><stop stop-color="#B3B3B3"></stop><stop offset="0.397" stop-color="#A8A8A8"></stop><stop offset="0.88" stop-color="#B4B4B4"></stop></linearGradient><linearGradient id="Read_fill_20_svg__e" x1="10" x2="10" y1="9.492" y2="16.999" gradientUnits="userSpaceOnUse"><stop offset="0.423" stop-color="#F5F3F3"></stop><stop offset="0.824" stop-color="#E2E2E2"></stop><stop offset="1" stop-color="#D6D6D6"></stop></linearGradient><linearGradient id="Read_fill_20_svg__f" x1="10" x2="10" y1="9.727" y2="16.727" gradientUnits="userSpaceOnUse"><stop stop-color="#FDFDFD"></stop><stop offset="0.603" stop-color="#F3F1F1"></stop><stop offset="0.849" stop-color="#E0E0E0"></stop></linearGradient><linearGradient id="Read_fill_20_svg__g" x1="10" x2="10" y1="9" y2="16" gradientUnits="userSpaceOnUse"><stop stop-color="#A9A9A9"></stop><stop offset="0.603" stop-color="#B9B9B9"></stop><stop offset="0.924" stop-color="#E4E4E4"></stop></linearGradient><linearGradient id="Read_fill_20_svg__h" x1="10" x2="10" y1="5" y2="17" gradientUnits="userSpaceOnUse"><stop stop-color="#BFBFBF"></stop><stop offset="1" stop-color="#999"></stop></linearGradient></defs></svg>
