<svg xmlns="http://www.w3.org/2000/svg" width="20" height="20" fill="none"><path fill="url(#Read_SendLater_20_svg__a)" d="M2 7.554a1 1 0 0 1 .47-.848l6.47-4.043a2 2 0 0 1 2.12 0l6.47 4.043a1 1 0 0 1 .47.848V16a1 1 0 0 1-1 1H3a1 1 0 0 1-1-1z"></path><path stroke="url(#Read_SendLater_20_svg__b)" stroke-width="0.6" d="m17.5 7.7-6.969-4.367a1 1 0 0 0-1.062 0L2.5 7.7"></path><path stroke="url(#Read_SendLater_20_svg__c)" stroke-linecap="round" stroke-width="0.6" d="m17.5 9.2-6.518 5.648a1.5 1.5 0 0 1-1.964 0L2.5 9.199"></path><path stroke="url(#Read_SendLater_20_svg__d)" stroke-linecap="round" stroke-width="0.6" d="m17.5 8.5-6.518 5.649a1.5 1.5 0 0 1-1.964 0L2.5 8.5"></path><path fill="url(#Read_SendLater_20_svg__e)" fill-rule="evenodd" d="M3 16.999h14a1 1 0 0 0 1-1l-7.012-6.136a1.5 1.5 0 0 0-1.976 0L2 16a1 1 0 0 0 1 1" clip-rule="evenodd"></path><path stroke="url(#Read_SendLater_20_svg__f)" stroke-width="0.6" d="m2.5 16.2 6.845-5.933a1 1 0 0 1 1.31 0l6.845 5.932"></path><path stroke="url(#Read_SendLater_20_svg__g)" stroke-width="0.5" d="m2.5 15.5 6.518-5.649a1.5 1.5 0 0 1 1.964 0L17.5 15.5"></path><path stroke="url(#Read_SendLater_20_svg__h)" stroke-width="0.6" d="M9.099 2.917a1.7 1.7 0 0 1 1.802 0l6.47 4.044a.7.7 0 0 1 .33.594V16a.7.7 0 0 1-.701.7H3a.7.7 0 0 1-.7-.7V7.555a.7.7 0 0 1 .329-.594z"></path><circle cx="15" cy="14" r="5" fill="url(#Read_SendLater_20_svg__i)"></circle><path stroke="#C82B16" stroke-linecap="round" stroke-width="0.5" d="M15 10.75V14M17.75 14H15"></path><path stroke="#fff" stroke-width="0.5" d="M15 9.75c2.636 0 4.75 2.027 4.75 4.5 0 2.209-2.124 4.5-4.75 4.5s-4.75-2.291-4.75-4.5c0-2.473 2.114-4.5 4.75-4.5Z"></path><circle cx="15" cy="14" r="4.75" stroke="#C82B16" stroke-width="0.5"></circle><defs><linearGradient id="Read_SendLater_20_svg__a" x1="10" x2="10" y1="5" y2="17" gradientUnits="userSpaceOnUse"><stop offset="0.212" stop-color="#F6F6F6"></stop><stop offset="0.571" stop-color="#E7E7E7"></stop></linearGradient><linearGradient id="Read_SendLater_20_svg__b" x1="10" x2="10" y1="7.501" y2="3.001" gradientUnits="userSpaceOnUse"><stop stop-color="#F6F6F6"></stop><stop offset="0.397" stop-color="#FCFCFC"></stop><stop offset="0.88" stop-color="#fff"></stop></linearGradient><linearGradient id="Read_SendLater_20_svg__c" x1="10" x2="10" y1="14.699" y2="9" gradientUnits="userSpaceOnUse"><stop stop-color="#fff"></stop><stop offset="0.397" stop-color="#ECECEC"></stop><stop offset="0.88" stop-color="#F5F5F5"></stop></linearGradient><linearGradient id="Read_SendLater_20_svg__d" x1="10" x2="10" y1="14" y2="7" gradientUnits="userSpaceOnUse"><stop stop-color="#B3B3B3"></stop><stop offset="0.397" stop-color="#A8A8A8"></stop><stop offset="0.88" stop-color="#B4B4B4"></stop></linearGradient><linearGradient id="Read_SendLater_20_svg__e" x1="10" x2="10" y1="9.492" y2="16.999" gradientUnits="userSpaceOnUse"><stop offset="0.423" stop-color="#F5F3F3"></stop><stop offset="0.824" stop-color="#E2E2E2"></stop><stop offset="1" stop-color="#D6D6D6"></stop></linearGradient><linearGradient id="Read_SendLater_20_svg__f" x1="10" x2="10" y1="9.699" y2="16.699" gradientUnits="userSpaceOnUse"><stop stop-color="#FDFDFD"></stop><stop offset="0.603" stop-color="#F3F1F1"></stop><stop offset="0.849" stop-color="#E0E0E0"></stop></linearGradient><linearGradient id="Read_SendLater_20_svg__g" x1="10" x2="10" y1="9" y2="16" gradientUnits="userSpaceOnUse"><stop stop-color="#A9A9A9"></stop><stop offset="0.603" stop-color="#B9B9B9"></stop><stop offset="0.924" stop-color="#E4E4E4"></stop></linearGradient><linearGradient id="Read_SendLater_20_svg__h" x1="10" x2="10" y1="5" y2="17" gradientUnits="userSpaceOnUse"><stop stop-color="#BFBFBF"></stop><stop offset="1" stop-color="#999"></stop></linearGradient><linearGradient id="Read_SendLater_20_svg__i" x1="15" x2="15" y1="9" y2="19" gradientUnits="userSpaceOnUse"><stop stop-color="#FFEDEB"></stop><stop offset="1" stop-color="#FFD5D0"></stop></linearGradient></defs></svg>
