<svg xmlns="http://www.w3.org/2000/svg" width="20" height="20" fill="none"><path fill="url(#Read_Replied_20_svg__a)" d="M2 7.554a1 1 0 0 1 .47-.848l6.47-4.043a2 2 0 0 1 2.12 0l6.47 4.043a1 1 0 0 1 .47.848V16a1 1 0 0 1-1 1H3a1 1 0 0 1-1-1z"></path><path stroke="url(#Read_Replied_20_svg__b)" stroke-width="0.6" d="m17.5 7.7-6.969-4.367a1 1 0 0 0-1.062 0L2.5 7.7"></path><path stroke="url(#Read_Replied_20_svg__c)" stroke-linecap="round" stroke-width="0.6" d="m17.5 9.2-6.518 5.648a1.5 1.5 0 0 1-1.964 0L2.5 9.199"></path><path stroke="url(#Read_Replied_20_svg__d)" stroke-linecap="round" stroke-width="0.6" d="m17.5 8.5-6.518 5.649a1.5 1.5 0 0 1-1.964 0L2.5 8.5"></path><path fill="url(#Read_Replied_20_svg__e)" fill-rule="evenodd" d="M3 16.999h14a1 1 0 0 0 1-1l-7.012-6.136a1.5 1.5 0 0 0-1.976 0L2 16a1 1 0 0 0 1 1" clip-rule="evenodd"></path><path stroke="url(#Read_Replied_20_svg__f)" stroke-width="0.6" d="m2.5 16.2 6.845-5.933a1 1 0 0 1 1.31 0l6.845 5.932"></path><path stroke="url(#Read_Replied_20_svg__g)" stroke-width="0.5" d="m2.5 15.5 6.518-5.649a1.5 1.5 0 0 1 1.964 0L17.5 15.5"></path><path stroke="url(#Read_Replied_20_svg__h)" stroke-width="0.6" d="M9.099 2.917a1.7 1.7 0 0 1 1.802 0l6.47 4.044a.7.7 0 0 1 .33.594V16a.7.7 0 0 1-.701.7H3a.7.7 0 0 1-.7-.7V7.555a.7.7 0 0 1 .329-.594z"></path><path fill="url(#Read_Replied_20_svg__i)" fill-rule="evenodd" d="M14 16.911v1.857a.5.5 0 0 1-.838.368l-4.76-4.363a.5.5 0 0 1 0-.737l4.76-4.364a.5.5 0 0 1 .838.369v1.863c2.5 0 6 2.504 6 7.217-.932-1.6-3.677-2.143-6-2.21" clip-rule="evenodd"></path><path stroke="#BFDDFF" stroke-linecap="square" stroke-linejoin="round" stroke-width="0.5" d="m9 14.5 4.5-4.198" opacity="0.6"></path><mask id="Read_Replied_20_svg__j" fill="#fff"><path fill-rule="evenodd" d="M14 16.91v1.857a.5.5 0 0 1-.838.368l-4.76-4.363a.5.5 0 0 1 0-.737l4.76-4.364a.5.5 0 0 1 .838.369v1.863c2.5 0 6 2.504 6 7.217-.932-1.6-3.677-2.143-6-2.21" clip-rule="evenodd"></path></mask><path fill="#0E66CB" d="M14 16.91h-.5v-.514l.514.015zm-.838 2.225.338-.368zm-4.76-4.363.338-.369zm0-.737-.338-.369zm4.76-4.364.338.369zM14 11.903v.5h-.5v-.5zm6 7.217h.5v1.851l-.932-1.6zm-6.5-.353V16.91h1v1.857zm0 0h1c0 .87-1.034 1.325-1.676.737zm-4.76-4.364 4.76 4.364-.676.737-4.76-4.363zm0 0-.676.738a1 1 0 0 1 0-1.475zm4.76-4.363-4.76 4.363-.676-.737 4.76-4.363zm0 0-.676-.737c.642-.588 1.676-.133 1.676.737zm0 1.863V10.04h1v1.863zm6 7.217c0-4.448-3.287-6.717-5.5-6.717v-1c2.787 0 6.5 2.739 6.5 7.717zm-5.486-2.71c1.19.035 2.506.19 3.658.553 1.138.358 2.201.945 2.76 1.905l-.864.503c-.373-.64-1.149-1.124-2.197-1.454-1.034-.326-2.252-.474-3.385-.507z" mask="url(#Read_Replied_20_svg__j)"></path><defs><linearGradient id="Read_Replied_20_svg__a" x1="10" x2="10" y1="5" y2="17" gradientUnits="userSpaceOnUse"><stop offset="0.212" stop-color="#F6F6F6"></stop><stop offset="0.571" stop-color="#E7E7E7"></stop></linearGradient><linearGradient id="Read_Replied_20_svg__b" x1="10" x2="10" y1="7.501" y2="3.001" gradientUnits="userSpaceOnUse"><stop stop-color="#F6F6F6"></stop><stop offset="0.397" stop-color="#FCFCFC"></stop><stop offset="0.88" stop-color="#fff"></stop></linearGradient><linearGradient id="Read_Replied_20_svg__c" x1="10" x2="10" y1="14.699" y2="9" gradientUnits="userSpaceOnUse"><stop stop-color="#fff"></stop><stop offset="0.397" stop-color="#ECECEC"></stop><stop offset="0.88" stop-color="#F5F5F5"></stop></linearGradient><linearGradient id="Read_Replied_20_svg__d" x1="10" x2="10" y1="14" y2="7" gradientUnits="userSpaceOnUse"><stop stop-color="#B3B3B3"></stop><stop offset="0.397" stop-color="#A8A8A8"></stop><stop offset="0.88" stop-color="#B4B4B4"></stop></linearGradient><linearGradient id="Read_Replied_20_svg__e" x1="10" x2="10" y1="9.492" y2="16.999" gradientUnits="userSpaceOnUse"><stop offset="0.423" stop-color="#F5F3F3"></stop><stop offset="0.824" stop-color="#E2E2E2"></stop><stop offset="1" stop-color="#D6D6D6"></stop></linearGradient><linearGradient id="Read_Replied_20_svg__f" x1="10" x2="10" y1="9.699" y2="16.699" gradientUnits="userSpaceOnUse"><stop stop-color="#FDFDFD"></stop><stop offset="0.603" stop-color="#F3F1F1"></stop><stop offset="0.849" stop-color="#E0E0E0"></stop></linearGradient><linearGradient id="Read_Replied_20_svg__g" x1="10" x2="10" y1="9" y2="16" gradientUnits="userSpaceOnUse"><stop stop-color="#A9A9A9"></stop><stop offset="0.603" stop-color="#B9B9B9"></stop><stop offset="0.924" stop-color="#E4E4E4"></stop></linearGradient><linearGradient id="Read_Replied_20_svg__h" x1="10" x2="10" y1="5" y2="17" gradientUnits="userSpaceOnUse"><stop stop-color="#BFBFBF"></stop><stop offset="1" stop-color="#999"></stop></linearGradient><linearGradient id="Read_Replied_20_svg__i" x1="9.5" x2="19.5" y1="14.501" y2="14.501" gradientUnits="userSpaceOnUse"><stop stop-color="#7DBAFF"></stop><stop offset="1" stop-color="#3895FF"></stop></linearGradient></defs></svg>
