<svg xmlns="http://www.w3.org/2000/svg" width="20" height="20" fill="none"><path fill="url(#SendingStatus_Sent_20_svg__a)" d="M3.284 7.1A4 4 0 0 1 7.182 4H19v13H4.771a3 3 0 0 1-2.923-3.675z"></path><path fill="url(#SendingStatus_Sent_20_svg__b)" fill-rule="evenodd" d="M7.182 4a4 4 0 0 0-3.897 3.1l-1.437 6.225A3 3 0 0 0 4.771 17h4.047q.092 0 .182-.004V17h10v-1h-7.536c.323-.285.6-.622.819-1H19v-1h-6.309l.025-.1.207-.9H19v-1h-5.846l.23-1H19v-1h-5.384l.23-1H19V8h-4.923l.23-1H19V6H14.54l.23-1H19V4H7.182" clip-rule="evenodd"></path><path stroke="#fff" stroke-linecap="round" stroke-linejoin="round" stroke-width="1.25" d="m5.5 10.5 2 2.5 4-5.5"></path><defs><linearGradient id="SendingStatus_Sent_20_svg__a" x1="14.5" x2="16.008" y1="8.5" y2="8.974" gradientUnits="userSpaceOnUse"><stop stop-color="#51C76B"></stop><stop offset="1" stop-color="#079C27" stop-opacity="0"></stop></linearGradient><linearGradient id="SendingStatus_Sent_20_svg__b" x1="16" x2="18" y1="10" y2="10.5" gradientUnits="userSpaceOnUse"><stop stop-color="#51C76B"></stop><stop offset="1" stop-color="#51C76B" stop-opacity="0"></stop></linearGradient></defs></svg>
